<svg xmlns="http://www.w3.org/2000/svg" xmlns:svg="http://www.w3.org/2000/svg" xmlns:xlink="http://www.w3.org/1999/xlink" id="svg2" width="286.227" height="281.931" version="1.1" viewBox="0 0 268.338 264.31"><defs id="defs4"><pattern id="pattern1980" patternTransform="translate(-50.07238,-102.2896)" xlink:href="#pattern1929"/><pattern id="pattern1976" patternTransform="translate(86.65527,-50.07244)" xlink:href="#pattern1929"/><pattern id="pattern1968" patternTransform="translate(34.43797,86.65526)" xlink:href="#pattern1929"/><pattern id="pattern1929" width="8.662" height="6.972" patternTransform="translate(34.43797,86.65526)" patternUnits="userSpaceOnUse"><rect id="rect1927" width="8.662" height="6.972" x="0" y="0" style="fill:#4bffff;fill-opacity:1;stroke:none;stroke-width:3;stroke-linecap:round;stroke-linejoin:round;stroke-miterlimit:4;stroke-dasharray:none;stroke-opacity:1"/></pattern></defs><metadata id="metadata7"/><g id="layer2" transform="translate(-48.376167,-165.29443)"><path style="fill:#d32f2f;fill-opacity:1;fill-rule:nonzero;stroke-width:0;stroke-linecap:butt;stroke-linejoin:miter;stroke-miterlimit:4" id="path2125-5" d="M 111.18164,0.0078125 C 99.386735,0.46546041 99.513475,22.447541 84.267578,19.167969 c -11.20806,-2.96992 -23.70349,-12.4499471 -33.05664,0.314453 -8.2948,8.87691 0.83091,22.714531 -12.00586,28.894531 -8.2961,7.26061 -21.197725,-1.969569 -25.296875,11.900391 -8.1617099,13.55344 12.466823,23.924325 1.033203,37.259765 C 7.5542363,105.92345 -5.5261675,112.01 2.5390625,125.42773 c 6.25396,7.3455 16.3974155,10.01774 15.5097655,22.15039 1.20737,10.65855 -12.9656567,18.95633 -2.279297,29.19532 7.73346,12.42399 24.241574,1.40383 29.621094,16.41406 6.22744,9.51562 -1.883143,23.1702 13.085937,26.88672 13.48995,6.37637 26.329589,-12.58281 39.292969,0.67773 6.026109,6.62947 7.095829,17.60201 19.273439,14.74805 14.28869,-0.47515 11.54469,-13.87559 25.79687,-18.44922 15.85171,-4.88831 22.23609,13.25914 34.22852,1.11133 12.09743,-7.26025 1.81839,-20.30444 10.70117,-27.64453 10.88804,-12.90469 30.70479,-1.56303 32.91602,-21.28516 2.04237,-10.75147 -9.45046,-13.29354 -6.46289,-26.54101 4.29553,-13.76802 25.69766,-14.7954 16.17773,-31.02735 -4.51477,-8.19863 -14.87426,-8.50869 -16.14258,-18.003904 -0.17056,5.72e-4 -0.23212,0.0014 -0.40625,0.002 -6.51359,0.02164 -12.27424,-0.01473 -15.41601,-0.08203 3.38275,11.239604 4.3803,23.156994 2.33398,35.005864 -5.07693,41.41035 -43.43031,77.19844 -85.88672,75.18359 C 75.103332,203.3799 37.518402,172.0657 32.169922,132.22271 25.616522,94.891934 45.609809,53.663794 81.074219,38.691454 c 10.92913,-5.07657 22.968221,-7.878677 35.039061,-7.716797 28.8137,-0.887148 55.52382,15.617329 71.23047,39.191407 0.63029,-5.18666 2.6882,-9.975206 6.73437,-12.800782 1.63226,-0.64182 2.00988,-0.654296 19.14844,-0.654296 1.48648,0 2.21501,0.0033 3.46094,0.0039 -0.68215,-0.70249 -1.48069,-1.403956 -2.41211,-2.103516 -8.71347,-7.58232 -17.36077,0.449814 -26.91211,-9.253906 -8.05004,-11.92262 1.46908,-22.68913 -12.48047,-30.125 C 162.05632,9.1299419 156.8999,21.558525 143.17578,18.203125 128.7955,12.645605 130.30189,-0.93373313 113.70703,0.21679688 112.80665,0.04210562 111.96797,-0.02269736 111.18164,0.0078125 Z" transform="translate(62.548997,179.46711)"/></g><g style="display:none" id="g4398" transform="translate(-48.376167,-165.29443)"><path style="fill:#fff;fill-opacity:1;stroke:none;stroke-width:1;stroke-miterlimit:4;stroke-dasharray:none;stroke-opacity:1" id="path4400" d="m 275.7752,236.17863 c -17.13856,0 -17.51586,0.0122 -19.14811,0.65402 -11.94906,8.34442 -6.60454,33.79941 1.86899,36.11454 0.57387,0.13037 8.63178,0.21221 17.90451,0.18141 16.51868,-0.055 16.89386,-0.0689 18.57762,-0.72325 5.57558,-3.32109 6.18057,-6.82175 6.39941,-12.33098 l 8.60236,4.93766 0.0457,-22.56406 -8.64802,6.72759 c -0.0229,-5.24798 -2.21638,-10.52711 -6.39941,-12.32859 -1.69425,-0.65801 -1.96595,-0.66834 -19.20301,-0.66834 z m 15.95198,5.10091 c 2.7095,-1.3e-4 4.90639,2.19569 4.90757,4.90518 1.4e-4,2.71043 -2.19714,4.9077 -4.90757,4.90756 -2.71043,1.4e-4 -4.9077,-2.19713 -4.90756,-4.90756 0.001,-2.70949 2.19806,-4.90531 4.90756,-4.90518 z"/></g><g id="layer1" transform="translate(-48.376167,-165.29443)" style="display:inline"><path style="fill:#e57373;fill-opacity:1" id="path4159" d="m 252.29297,272.05859 c -8.68962,7.237 -24.69365,14.52256 -33.72183,11.24752 -8.39626,-2.11339 -12.78629,-10.63189 -18.28012,-16.57564 -5.95763,-7.27522 -12.35914,-17.38578 -23.1543,-16.45313 -13.17399,-0.65893 -23.98481,13.43958 -20.02493,25.98747 1.63471,8.88319 10.47091,12.55487 18.27973,14.38967 11.91395,3.27069 26.23488,4.77178 33.53544,16.16606 8.68678,12.79781 3.52496,31.87369 -9.70254,39.4861 -10.98161,6.54291 -26.70073,5.49016 -35.36552,-4.49316 -6.46279,-6.1368 -7.62567,-18.17183 -17.2788,-20.23627 -9.63453,-0.10964 -30.61668,16.66143 -27.84572,23.21771 21.67394,28.4427 63.99851,37.58467 95.52539,20.82031 33.58566,-16.37544 50.85924,-58.38161 38.0332,-93.55664 z"/><path style="fill:#f44336;fill-opacity:1" id="path4157" d="m 179.23047,219.55859 c -35.69478,-0.63304 -69.26502,26.7171 -75.69141,61.88672 -3.32349,16.22199 -1.33088,37.96014 7.76616,50.10418 8.94492,-6.83538 17.95276,-13.68158 27.60494,-19.48894 6.76959,-2.83255 12.74493,0.10594 18.60759,6.19749 6.71283,7.0926 11.25878,16.99646 20.50965,21.19502 12.23486,4.47798 27.62772,-6.89635 24.94706,-20.25087 -0.78801,-10.11997 -10.3985,-15.16183 -19.2461,-16.96988 -10.38702,-3.51633 -22.7276,-4.22834 -30.72881,-12.51734 -9.82823,-12.1862 -8.38013,-32.19894 4.09934,-42.09307 8.29027,-7.87071 20.8334,-8.96414 31.34219,-5.6405 12.34608,5.41503 18.33381,18.56438 27.11617,28.01775 9.73445,10.50052 21.06866,-2.34826 33.61658,-5.7472 -11.93365,-26.90336 -40.57016,-44.98464 -69.94336,-44.69336 z"/><path style="fill:#d32f2f;fill-opacity:1;stroke:none;stroke-width:1;stroke-miterlimit:4;stroke-dasharray:none;stroke-opacity:1" id="path4202" d="m 274.51569,239.53702 c -14.02366,0 -14.33238,0.01 -15.66797,0.53515 -9.77734,6.82784 -5.40418,27.65642 1.5293,29.55078 0.46957,0.10668 7.06297,0.17364 14.65039,0.14844 13.51644,-0.045 13.82343,-0.0564 15.20117,-0.5918 4.56223,-2.71749 5.05726,-5.58191 5.23633,-10.08984 l 7.03889,4.04024 0.0374,-18.46307 -7.07626,5.50486 c -0.0187,-4.29417 -1.81356,-8.61383 -5.23633,-10.08789 -1.38632,-0.53842 -1.60864,-0.54687 -15.71289,-0.54687 z m 13.05273,4.17383 c 2.21705,-1.1e-4 4.01466,1.79662 4.01563,4.01367 1.1e-4,2.21781 -1.79782,4.01573 -4.01563,4.01562 -2.21781,1.1e-4 -4.01573,-1.79781 -4.01562,-4.01562 9.7e-4,-2.21705 1.79857,-4.01378 4.01562,-4.01367 z"/></g></svg>